<?xml version="1.0" encoding="utf-8"?>
<!-- Generator: Adobe Illustrator 26.3.1, SVG Export Plug-In . SVG Version: 6.00 Build 0)  -->
<svg version="1.1" id="Layer" xmlns:v="https://vecta.io/nano"
	 xmlns="http://www.w3.org/2000/svg" xmlns:xlink="http://www.w3.org/1999/xlink" x="0px" y="0px" viewBox="0 0 800 800"
	 style="enable-background:new 0 0 800 800;" xml:space="preserve">
<style type="text/css">
	.st0{fill:url(#SVGID_1_);}
	.st1{fill:url(#SVGID_00000031927556192313957980000010962072316454074521_);}
	.st2{fill:url(#SVGID_00000137093166043718049970000004035348718867943309_);}
	.st3{fill:url(#SVGID_00000177481743312371768180000004310768354447511989_);}
</style>
<g>
	
		<linearGradient id="SVGID_1_" gradientUnits="userSpaceOnUse" x1="31.2036" y1="-158.7797" x2="601.2527" y2="411.2695" gradientTransform="matrix(-0.4021 -0.9156 0.9156 -0.4021 598.0897 778.781)">
		<stop  offset="0.3464" style="stop-color:#B887F7;stop-opacity:0"/>
		<stop  offset="1" style="stop-color:#534AF7"/>
	</linearGradient>
	<path class="st0" d="M332.8,479.7l344.3-180.9c15-7.9,33.6-2.1,41.5,12.9c1.9,3.6,3,7.4,3.4,11.2l39.1,387
		c16.3,161.2-101.2,305.1-262.4,321.3C337.5,1047.5,193.7,930,177.4,768.8C165,646.3,230.2,533.7,332.8,479.7z"/>
	
		<linearGradient id="SVGID_00000138574350622586379360000009378964436802344347_" gradientUnits="userSpaceOnUse" x1="636.7685" y1="987.7896" x2="389.0384" y2="423.658">
		<stop  offset="0.3464" style="stop-color:#FFFFFF;stop-opacity:0"/>
		<stop  offset="1" style="stop-color:#534AF7;stop-opacity:0.2"/>
	</linearGradient>
	<path style="fill:url(#SVGID_00000138574350622586379360000009378964436802344347_);" d="M691.4,295.2c11.1,0,21.7,6,27.2,16.5
		c1.9,3.6,3,7.4,3.4,11.2l39.1,387c16.3,161.2-101.2,305.1-262.4,321.3c-10,1-20,1.5-29.8,1.5c-148.8,0-276.2-112.7-291.5-263.9
		C165,646.3,230.2,533.7,332.8,479.7l344.3-180.9C681.7,296.4,686.6,295.2,691.4,295.2 M691.4,293.8L691.4,293.8
		c-5.2,0-10.3,1.3-14.9,3.7L332.2,478.4c-25.6,13.5-49,30.6-69.7,51c-20.5,20.2-37.9,43.3-51.8,68.5C182,650.2,170,709.4,176,769
		c7.4,73.1,41.5,140.4,96.2,189.5c54.2,48.8,124.1,75.6,196.8,75.6c9.9,0,20-0.5,30-1.5c39.6-4,77.2-15.6,111.8-34.6
		c33.4-18.3,62.7-42.6,86.9-72.3c24.2-29.7,42.2-63.2,53.4-99.6c11.6-37.7,15.5-76.9,11.5-116.5l-39.1-387
		c-0.4-4.1-1.6-8.1-3.5-11.7C714.3,300.4,703.4,293.8,691.4,293.8L691.4,293.8z"/>
</g>
<g>
	
		<linearGradient id="SVGID_00000086679306595237893470000010210538407500423319_" gradientUnits="userSpaceOnUse" x1="-48.9532" y1="-431.2987" x2="521.0959" y2="138.7504" gradientTransform="matrix(0.4021 0.9156 -0.9156 0.4021 254.8848 55.7567)">
		<stop  offset="0.3464" style="stop-color:#B887F7;stop-opacity:0"/>
		<stop  offset="1" style="stop-color:#534AF7"/>
	</linearGradient>
	<path style="fill:url(#SVGID_00000086679306595237893470000010210538407500423319_);" d="M737.4,171.9L393.1,352.8
		c-15,7.9-33.6,2.1-41.5-12.9c-1.9-3.6-3-7.4-3.4-11.2l-39.1-387c-16.3-161.2,101.2-305.1,262.4-321.3s305.1,101.2,321.3,262.4
		C905.2,5.3,840.1,117.8,737.4,171.9z"/>
	
		<linearGradient id="SVGID_00000031917820992357975550000013020757493039588786_" gradientUnits="userSpaceOnUse" x1="433.497" y1="-336.217" x2="681.2271" y2="227.9145">
		<stop  offset="0.3464" style="stop-color:#FFFFFF;stop-opacity:0"/>
		<stop  offset="1" style="stop-color:#534AF7;stop-opacity:0.2"/>
	</linearGradient>
	<path style="fill:url(#SVGID_00000031917820992357975550000013020757493039588786_);" d="M601.4-381.1
		c148.8,0,276.2,112.7,291.5,263.9c12.4,122.5-52.8,235.1-155.4,289.2L393.1,352.8c-4.6,2.4-9.5,3.5-14.3,3.5
		c-11.1,0-21.7-6-27.2-16.5c-1.9-3.6-3-7.4-3.4-11.2l-39.1-387c-16.3-161.2,101.2-305.1,262.4-321.3
		C581.6-380.6,591.5-381.1,601.4-381.1 M601.4-382.5v1.4V-382.5c-10,0-20,0.5-30,1.5c-39.6,4-77.2,15.6-111.8,34.6
		c-33.4,18.3-62.7,42.6-86.9,72.3c-24.2,29.7-42.2,63.2-53.4,99.6c-11.6,37.7-15.5,76.9-11.5,116.5l39.1,387
		c0.4,4.1,1.6,8.1,3.5,11.7c5.6,10.6,16.5,17.2,28.5,17.2c5.2,0,10.3-1.3,14.9-3.7l344.3-180.9c25.6-13.5,49-30.6,69.7-51
		c20.5-20.2,37.9-43.3,51.8-68.5c28.7-52.4,40.8-111.5,34.7-171.1c-7.4-73.1-41.5-140.4-96.2-189.5
		C743.9-355.7,674-382.5,601.4-382.5L601.4-382.5z"/>
</g>
</svg>
