<svg xmlns="http://www.w3.org/2000/svg" viewBox="0 0 80 60" fill="#565656" xmlns:v="https://vecta.io/nano">
   <path d="M18.7 29.6l-2.8-7-3.3 7.1-4.8-12.4h2.7l2.3 6.9 1.8-4.5-.9-2.3H16l2.7 6.6 2-6.6h2.5l-4.5 12.2zm18.5-12.4v2.3h-5.8V22h5.1v2.3h-5.1v2.6h6V29h-8.3V17.2h8.1zm15 6.7c.3.5.5 1 .5 1.6 0 1.2-.4 2.1-1.2 2.7s-1.8.8-3 .8h-4V17.2H48c1.3 0 2.2.3 3 .8.7.5 1.1 1.2 1.1 2.2 0 .6-.1 1.1-.4 1.6-.2.4-.6.8-1 1.1a2.84 2.84 0 0 1 1.5 1zM47 22h1.4c.4 0 .8-.1 1-.4s.4-.6.4-1-.1-.7-.4-.9-.6-.3-1.1-.3H47V22zm2.8 4.5c.3-.2.5-.6.5-1 0-.8-.7-1.3-2-1.3H47v2.6h1.5c.5.1 1 0 1.3-.3zM9.5 34.6H13c1.5 0 2.8.3 3.7.9 1 .6 1.7 1.3 2.1 2.3.4.9.7 1.9.7 3s-.3 2.1-.8 3-1.3 1.5-2.2 2-1.9.7-3 .7h-4V34.6zm3.7 9.6c1.2 0 2.2-.3 2.9-.9s1.1-1.5 1.1-2.7c0-.9-.2-1.7-.6-2.3s-.8-.9-1.4-1.2c-.5-.2-1-.3-1.5-.3h-1.9v7.4h1.4zm13.6-6.7a5.81 5.81 0 0 1 2.2-2.2c.9-.6 1.9-.8 3-.8s2.1.3 3 .8a5.81 5.81 0 0 1 2.2 2.2c.5.9.8 1.9.8 3s-.3 2.1-.8 3c-.6.9-1.3 1.7-2.2 2.2s-1.9.8-3 .8-2.1-.3-3-.8a5.81 5.81 0 0 1-2.2-2.2c-.5-.9-.8-1.9-.8-3 0-1 .3-2 .8-3zm2.1 4.9c.3.6.8 1 1.3 1.4s1.2.5 1.9.5 1.3-.2 1.8-.5 1-.8 1.3-1.4.5-1.2.5-1.9-.2-1.4-.5-1.9c-.3-.6-.8-1-1.3-1.4-.6-.3-1.2-.5-1.8-.5-.7 0-1.3.2-1.8.5-.6.3-1 .8-1.3 1.4s-.5 1.2-.5 1.9c-.1.7.1 1.4.4 1.9zm26.4-7.8V47h-.1L47 39.4v7h-2.4V34.1h.1l8.3 7.6v-7.1h2.3zm16 11.3c-.5.2-1 .4-1.5.5l-1.5.2c-1.3 0-2.4-.2-3.3-.7a5.37 5.37 0 0 1-2.2-2c-.5-.9-.8-1.9-.8-3 0-1.4.3-2.6.8-3.5.5-1 1.3-1.7 2.2-2.2s1.9-.7 3.1-.7c.7 0 1.4.1 2 .2s1.2.4 1.7.6l-.8 2.2c-.3-.2-.7-.3-1.3-.5-.5-.1-1-.2-1.4-.2-1.3 0-2.3.3-3 1-.7.6-1 1.6-1 2.9 0 .7.2 1.4.5 1.9s.8 1 1.4 1.2 1.3.4 2 .4 1.3-.1 1.6-.3v-1.4h-2v-2.3h4.4v5c-.2.3-.5.5-.9.7z"/>
</svg>
