<?xml version="1.0" encoding="utf-8"?>
<!-- Generator: Adobe Illustrator 26.3.1, SVG Export Plug-In . SVG Version: 6.00 Build 0)  -->
<svg version="1.1" id="圖層_1" xmlns="http://www.w3.org/2000/svg" xmlns:xlink="http://www.w3.org/1999/xlink" x="0px" y="0px"
	 viewBox="0 0 150 60" style="enable-background:new 0 0 150 60;" xml:space="preserve">
<style type="text/css">
	.st0{fill:#565656;}
	.st1{fill:#534AF7;}
	.st2{fill:#B887F7;}
	.st3{fill:#2596BE;}
	.st4{fill:url(#SVGID_1_);}
</style>
<g>
	<path class="st0" d="M89.4,27.3l-3.1-7.8l-3.7,7.8l-5.3-13.7h3l2.6,7.6l2-5l-1-2.6h2.6l3,7.3l2.2-7.3h2.8L89.4,27.3z"/>
	<path class="st0" d="M110.4,13.6v2.5H104v2.8h5.7v2.5H104v2.8h6.6v2.5h-9.2V13.6H110.4z"/>
	<path class="st0" d="M127.1,21c0.4,0.5,0.6,1.1,0.6,1.8c0,1.3-0.4,2.3-1.3,2.9s-2,0.9-3.3,0.9h-4.4V13.6h3.9c1.4,0,2.5,0.3,3.3,0.9
		c0.8,0.6,1.2,1.4,1.2,2.5c0,0.7-0.1,1.2-0.4,1.7c-0.3,0.5-0.7,0.9-1.2,1.2C126.2,20.1,126.8,20.5,127.1,21z M121.3,18.9h1.6
		c0.5,0,0.8-0.1,1.1-0.4c0.3-0.3,0.4-0.7,0.4-1.1c0-0.4-0.1-0.8-0.4-1c-0.3-0.2-0.7-0.3-1.2-0.3h-1.4V18.9z M124.5,23.9
		c0.4-0.2,0.6-0.6,0.6-1.1c0-0.9-0.7-1.4-2.2-1.4h-1.5v2.9h1.7C123.6,24.3,124.1,24.2,124.5,23.9z"/>
	<g>
		<path class="st0" d="M67.4,32.7h3.9c1.7,0,3.1,0.3,4.2,1c1.1,0.7,1.9,1.5,2.4,2.5c0.5,1,0.7,2.1,0.7,3.3c0,1.3-0.3,2.4-0.9,3.3
			c-0.6,1-1.4,1.7-2.4,2.2c-1,0.5-2.1,0.8-3.3,0.8h-4.6V32.7z M71.5,43.4c1.3,0,2.4-0.3,3.2-1c0.8-0.7,1.2-1.7,1.2-3
			c0-1-0.2-1.9-0.7-2.5c-0.4-0.6-0.9-1-1.5-1.3c-0.6-0.2-1.1-0.4-1.6-0.4H70v8.2H71.5z"/>
		<path class="st0" d="M86.6,36c0.6-1,1.4-1.9,2.5-2.5c1-0.6,2.2-0.9,3.4-0.9s2.3,0.3,3.4,0.9c1,0.6,1.9,1.4,2.5,2.5
			c0.6,1,0.9,2.2,0.9,3.3c0,1.2-0.3,2.3-0.9,3.4c-0.6,1-1.4,1.8-2.5,2.4c-1,0.6-2.2,0.9-3.4,0.9c-1.2,0-2.3-0.3-3.4-0.9
			c-1-0.6-1.8-1.4-2.4-2.4c-0.6-1-0.9-2.1-0.9-3.4C85.7,38.1,86,37,86.6,36z M89,41.5c0.4,0.6,0.9,1.2,1.5,1.5
			c0.6,0.4,1.3,0.6,2.1,0.6c0.7,0,1.4-0.2,2-0.6c0.6-0.4,1.1-0.9,1.4-1.5c0.3-0.6,0.5-1.3,0.5-2.1c0-0.8-0.2-1.5-0.5-2.1
			c-0.4-0.6-0.8-1.2-1.5-1.5c-0.6-0.4-1.3-0.6-2-0.6s-1.4,0.2-2,0.6c-0.6,0.4-1.1,0.9-1.5,1.5c-0.4,0.6-0.5,1.4-0.5,2.1
			C88.4,40.1,88.6,40.8,89,41.5z"/>
		<path class="st0" d="M119,32.7v13.7H119l-9.2-8.3l0.1,7.8h-2.6V32.2h0.1l9.2,8.4l-0.1-7.9H119z"/>
		<path class="st0" d="M137.4,45.3c-0.5,0.2-1.1,0.4-1.7,0.6c-0.6,0.1-1.2,0.2-1.7,0.2c-1.4,0-2.6-0.3-3.7-0.8
			c-1.1-0.5-1.9-1.3-2.4-2.3c-0.6-1-0.9-2.1-0.9-3.3c0-1.5,0.3-2.8,0.9-3.9s1.4-1.9,2.5-2.4c1-0.5,2.2-0.8,3.4-0.8
			c0.8,0,1.6,0.1,2.3,0.3c0.7,0.2,1.3,0.4,1.9,0.7L137,36c-0.3-0.2-0.8-0.4-1.4-0.5c-0.6-0.2-1.1-0.2-1.5-0.2
			c-1.4,0-2.5,0.4-3.3,1.1c-0.8,0.7-1.1,1.8-1.1,3.2c0,0.8,0.2,1.5,0.6,2.1c0.4,0.6,0.9,1.1,1.5,1.4s1.4,0.5,2.3,0.5
			c0.8,0,1.4-0.1,1.8-0.3v-1.6h-2.3V39h4.9v5.6C138.3,44.8,137.9,45,137.4,45.3z"/>
	</g>
</g>
<circle class="st1" cx="-32.4" cy="1" r="23.6"/>
<circle class="st2" cx="-32.4" cy="-47" r="23.6"/>
<circle class="st3" cx="-32.4" cy="45" r="23.6"/>
<linearGradient id="SVGID_1_" gradientUnits="userSpaceOnUse" x1="33.3291" y1="9.4898" x2="33.3291" y2="51.5455">
	<stop  offset="0" style="stop-color:#B887F7;stop-opacity:0"/>
	<stop  offset="1" style="stop-color:#534AF7"/>
</linearGradient>
<path class="st4" d="M33.3,51.5L33.3,51.5c-8.5,0-16.2-5.1-19.5-12.9L3.5,14c-0.9-2.1,0.7-4.5,3-4.5h53.6c2.3,0,3.9,2.4,3,4.5
	L52.8,38.6C49.5,46.4,41.8,51.5,33.3,51.5z"/>
</svg>
