<?xml version="1.0" encoding="utf-8"?>
<!-- Generator: Adobe Illustrator 26.3.1, SVG Export Plug-In . SVG Version: 6.00 Build 0)  -->
<svg version="1.1" id="圖層_1" xmlns="http://www.w3.org/2000/svg" xmlns:xlink="http://www.w3.org/1999/xlink" x="0px" y="0px"
	 viewBox="0 0 150 60" style="enable-background:new 0 0 150 60;" xml:space="preserve">
<style type="text/css">
	.st0{fill:#565656;}
	.st1{fill:url(#SVGID_1_);}
</style>
<g>
	<path class="st0" d="M77.2,29.6l-2.8-7l-3.3,7.1l-4.8-12.3H69l2.3,6.9l1.8-4.5l-0.9-2.3h2.3l2.7,6.6l2-6.6h2.5L77.2,29.6z"/>
	<path class="st0" d="M95.7,17.2v2.3H90V22h5.1v2.3H90v2.6h6V29h-8.3V17.2H95.7z"/>
	<path class="st0" d="M110.7,23.9c0.3,0.5,0.5,1,0.5,1.6c0,1.2-0.4,2.1-1.2,2.7c-0.8,0.6-1.8,0.8-3,0.8h-4V17.2h3.5
		c1.3,0,2.2,0.3,3,0.8c0.7,0.5,1.1,1.2,1.1,2.2c0,0.6-0.1,1.1-0.4,1.6c-0.2,0.4-0.6,0.8-1,1.1C109.9,23.1,110.4,23.5,110.7,23.9z
		 M105.5,22h1.4c0.4,0,0.8-0.1,1-0.4c0.2-0.3,0.4-0.6,0.4-1c0-0.4-0.1-0.7-0.4-0.9c-0.3-0.2-0.6-0.3-1.1-0.3h-1.3V22z M108.3,26.5
		c0.3-0.2,0.5-0.6,0.5-1c0-0.8-0.7-1.3-2-1.3h-1.3v2.6h1.5C107.5,26.9,108,26.8,108.3,26.5z"/>
	<path class="st0" d="M68,34.6h3.5c1.5,0,2.8,0.3,3.7,0.9c1,0.6,1.7,1.3,2.1,2.3c0.4,0.9,0.7,1.9,0.7,3c0,1.1-0.3,2.1-0.8,3
		c-0.5,0.9-1.3,1.5-2.2,2c-0.9,0.5-1.9,0.7-3,0.7H68V34.6z M71.7,44.2c1.2,0,2.2-0.3,2.9-0.9c0.7-0.6,1.1-1.5,1.1-2.7
		c0-0.9-0.2-1.7-0.6-2.3s-0.8-0.9-1.4-1.2c-0.5-0.2-1-0.3-1.5-0.3h-1.9v7.4H71.7z"/>
	<path class="st0" d="M85.3,37.5c0.5-0.9,1.3-1.7,2.2-2.2c0.9-0.6,1.9-0.8,3-0.8s2.1,0.3,3,0.8s1.7,1.3,2.2,2.2s0.8,1.9,0.8,3
		c0,1.1-0.3,2.1-0.8,3c-0.6,0.9-1.3,1.7-2.2,2.2s-1.9,0.8-3,0.8c-1.1,0-2.1-0.3-3-0.8c-0.9-0.5-1.7-1.3-2.2-2.2
		c-0.5-0.9-0.8-1.9-0.8-3C84.5,39.5,84.8,38.5,85.3,37.5z M87.4,42.4c0.3,0.6,0.8,1,1.3,1.4s1.2,0.5,1.9,0.5c0.7,0,1.3-0.2,1.8-0.5
		c0.5-0.3,1-0.8,1.3-1.4c0.3-0.6,0.5-1.2,0.5-1.9c0-0.7-0.2-1.4-0.5-1.9c-0.3-0.6-0.8-1-1.3-1.4c-0.6-0.3-1.2-0.5-1.8-0.5
		c-0.7,0-1.3,0.2-1.8,0.5c-0.6,0.3-1,0.8-1.3,1.4c-0.3,0.6-0.5,1.2-0.5,1.9C86.9,41.2,87.1,41.9,87.4,42.4z"/>
	<path class="st0" d="M113.8,34.6v12.4h-0.1l-8.3-7.5l0,7h-2.4V34.1h0.1l8.3,7.6l0-7.1H113.8z"/>
	<path class="st0" d="M129.8,45.9c-0.5,0.2-1,0.4-1.5,0.5c-0.6,0.1-1.1,0.2-1.5,0.2c-1.3,0-2.4-0.2-3.3-0.7c-1-0.5-1.7-1.2-2.2-2
		c-0.5-0.9-0.8-1.9-0.8-3c0-1.4,0.3-2.6,0.8-3.5c0.5-1,1.3-1.7,2.2-2.2s1.9-0.7,3.1-0.7c0.7,0,1.4,0.1,2,0.2
		c0.6,0.2,1.2,0.4,1.7,0.6l-0.8,2.2c-0.3-0.2-0.7-0.3-1.3-0.5c-0.5-0.1-1-0.2-1.4-0.2c-1.3,0-2.3,0.3-3,1c-0.7,0.6-1,1.6-1,2.9
		c0,0.7,0.2,1.4,0.5,1.9c0.3,0.5,0.8,1,1.4,1.2s1.3,0.4,2,0.4c0.7,0,1.3-0.1,1.6-0.3v-1.4h-2v-2.3h4.4v5
		C130.6,45.5,130.2,45.7,129.8,45.9z"/>
</g>
<linearGradient id="SVGID_1_" gradientUnits="userSpaceOnUse" x1="31.5568" y1="46.4746" x2="31.5568" y2="13.0812" gradientTransform="matrix(1 0 0 -1 0 62)">
	<stop  offset="0" style="stop-color:#B887F7;stop-opacity:0"/>
	<stop  offset="1" style="stop-color:#534AF7"/>
</linearGradient>
<path class="st1" d="M31.6,48.9L31.6,48.9c-6.7,0-12.9-4-15.5-10.2L7.9,19.1c-0.7-1.7,0.6-3.6,2.4-3.6h42.6c1.8,0,3.1,1.9,2.4,3.6
	L47,38.6C44.4,44.8,38.3,48.9,31.6,48.9z"/>
</svg>
