<?xml version="1.0" encoding="utf-8"?>
<!-- Generator: Adobe Illustrator 26.3.1, SVG Export Plug-In . SVG Version: 6.00 Build 0)  -->
<svg version="1.1" xmlns="http://www.w3.org/2000/svg" xmlns:xlink="http://www.w3.org/1999/xlink" x="0px" y="0px"
	 viewBox="0 0 140 40" style="enable-background:new 0 0 140 40;" xml:space="preserve">
<style type="text/css">
	.st0{fill:#666666;}
	.st1{fill:url(#SVGID_1_);}
</style>
<g id="Layer" xmlns:v="https://vecta.io/nano">
	<g>
		<path class="st0" d="M51.7,15.9H55c1.4,0,2.6,0.3,3.5,0.8c0.9,0.5,1.6,1.3,2,2.1c0.4,0.9,0.6,1.8,0.6,2.8c0,1.1-0.3,2-0.8,2.8
			c-0.5,0.8-1.2,1.4-2,1.9c-0.8,0.4-1.8,0.7-2.8,0.7h-3.8V15.9z M55.1,24.9c1.1,0,2-0.3,2.7-0.9c0.7-0.6,1-1.4,1-2.5
			c0-0.9-0.2-1.6-0.5-2.1c-0.4-0.5-0.8-0.9-1.3-1.1c-0.5-0.2-0.9-0.3-1.4-0.3h-1.8v6.9H55.1z"/>
		<path class="st0" d="M72.3,18.7c0.5-0.9,1.2-1.6,2.1-2.1c0.9-0.5,1.8-0.8,2.8-0.8c1,0,1.9,0.3,2.8,0.8c0.9,0.5,1.6,1.2,2.1,2.1
			c0.5,0.9,0.8,1.8,0.8,2.8c0,1-0.3,2-0.8,2.8c-0.5,0.9-1.2,1.5-2.1,2c-0.9,0.5-1.8,0.8-2.8,0.8c-1,0-2-0.3-2.8-0.8
			c-0.9-0.5-1.5-1.2-2-2c-0.5-0.9-0.8-1.8-0.8-2.8C71.6,20.5,71.8,19.5,72.3,18.7z M74.3,23.2c0.3,0.5,0.7,1,1.2,1.3
			c0.5,0.3,1.1,0.5,1.7,0.5c0.6,0,1.2-0.2,1.7-0.5c0.5-0.3,0.9-0.7,1.2-1.3c0.3-0.5,0.4-1.1,0.4-1.8c0-0.7-0.1-1.3-0.5-1.8
			c-0.3-0.5-0.7-1-1.2-1.3c-0.5-0.3-1.1-0.5-1.7-0.5c-0.6,0-1.2,0.2-1.7,0.5c-0.5,0.3-0.9,0.7-1.2,1.3c-0.3,0.5-0.4,1.1-0.4,1.8
			C73.8,22.1,74,22.7,74.3,23.2z"/>
		<path class="st0" d="M104,15.9v11.5H104l-7.7-7l0,6.5h-2.2V15.5h0.1l7.7,7.1l0-6.7H104z"/>
		<path class="st0" d="M124,26.4c-0.4,0.2-0.9,0.4-1.4,0.5c-0.5,0.1-1,0.2-1.4,0.2c-1.2,0-2.2-0.2-3.1-0.7c-0.9-0.5-1.6-1.1-2-1.9
			c-0.5-0.8-0.7-1.7-0.7-2.8c0-1.3,0.3-2.4,0.8-3.3c0.5-0.9,1.2-1.6,2.1-2c0.9-0.4,1.8-0.7,2.9-0.7c0.7,0,1.3,0.1,1.9,0.2
			c0.6,0.1,1.1,0.3,1.6,0.6l-0.7,2c-0.3-0.2-0.7-0.3-1.2-0.4c-0.5-0.1-0.9-0.2-1.3-0.2c-1.2,0-2.1,0.3-2.8,0.9c-0.6,0.6-1,1.5-1,2.7
			c0,0.7,0.2,1.3,0.5,1.8c0.3,0.5,0.7,0.9,1.3,1.2c0.6,0.3,1.2,0.4,1.9,0.4c0.7,0,1.2-0.1,1.5-0.3v-1.3h-1.9v-2.1h4.1v4.7
			C124.7,26.1,124.4,26.2,124,26.4z"/>
		<path class="st0" d="M134.8,27.6c-0.3-0.2-0.4-0.5-0.4-0.9c0-0.3,0.1-0.6,0.4-0.9c0.3-0.2,0.6-0.4,1-0.4s0.7,0.1,1,0.4
			c0.3,0.2,0.4,0.5,0.4,0.9c0,0.4-0.1,0.7-0.4,0.9s-0.6,0.3-1,0.3C135.4,27.9,135,27.8,134.8,27.6z M137.1,14.8l-0.4,9.6h-2.1
			l-0.4-9.6H137.1z"/>
	</g>
	<linearGradient id="SVGID_1_" gradientUnits="userSpaceOnUse" x1="3.3813" y1="16.7452" x2="34.0082" y2="16.7452">
		<stop  offset="0" style="stop-color:#FBBDB8;stop-opacity:0"/>
		<stop  offset="1" style="stop-color:#FBBDB8"/>
	</linearGradient>
	<circle class="st1" cx="18.7" cy="16.7" r="15.3"/>
	<path class="st0" d="M42.8,32.1c0,2.8-6.9,5-15.3,5c-8.5,0-15.3-2.2-15.3-5c0-0.4,0.2-0.8,0.5-1.2c1.9,0.8,3.9,1.2,6,1.2
		c4.4,0,8.5-1.9,11.2-4.9C37.2,27.5,42.8,29.6,42.8,32.1z"/>
</g>
<g id="圖層_2">
</g>
</svg>
